<svg width="360" height="64" viewBox="0 0 360 64" fill="none" xmlns="http://www.w3.org/2000/svg">
<g clip-path="url(#clip0_2_51)">
<g filter="url(#filter0_d_2_51)">
<rect x="100" width="160" height="64" rx="32" fill="#8FBC8E" fill-opacity="0.65" shape-rendering="crispEdges"/>
</g>
<g filter="url(#filter1_d_2_51)">
<rect width="90" height="64" fill="#8FBC8E" fill-opacity="0.65" shape-rendering="crispEdges"/>
</g>
<g filter="url(#filter2_i_2_51)">
<path d="M90.0988 64.074C83.7336 64.074 77.6291 60.7026 73.1283 54.7015C68.6274 48.7003 66.0988 40.561 66.0988 32.074C66.0988 23.5871 68.6274 15.4478 73.1282 9.44663C77.6291 3.44546 83.7336 0.0740446 90.0988 0.0740433L90.0988 32.074V64.074Z" fill="#F7F7F7"/>
</g>
<path d="M93 64C88.7565 64 84.6869 60.6286 81.6863 54.6274C78.6857 48.6263 77 40.4869 77 32C77 23.5131 78.6857 15.3738 81.6863 9.37259C84.6869 3.37142 88.7565 1.28149e-06 93 0L93 32V64Z" fill="#F7F7F7"/>
<g filter="url(#filter3_i_2_51)">
<circle cx="33" cy="32" r="28" fill="#F7F7F7"/>
</g>
<rect width="90" height="64" transform="matrix(-1 0 0 1 360 0)" fill="#8FBC8E" fill-opacity="0.65"/>
<path d="M269.901 64.074C276.266 64.074 282.371 60.7026 286.872 54.7015C291.373 48.7003 293.901 40.561 293.901 32.074C293.901 23.5871 291.373 15.4478 286.872 9.44663C282.371 3.44546 276.266 0.0740446 269.901 0.0740433L269.901 32.074V64.074Z" fill="#F7F7F7"/>
<g filter="url(#filter4_i_2_51)">
<circle r="28" transform="matrix(-1 0 0 1 327 32)" fill="#F7F7F7"/>
</g>
<g filter="url(#filter5_d_2_51)">
<circle cx="33" cy="37" r="7" fill="#DCFFCC"/>
<path d="M51.0771 49.2502L48.7148 24.1592C48.6428 23.3594 47.9301 22.7424 47.0732 22.7424H40.8672C39.4178 18.2254 36.9353 13.8379 33.5 13.8379C30.0566 13.8379 27.5822 18.2254 26.1168 22.7424H19.9107C19.0619 22.7424 18.3492 23.3594 18.2691 24.1592L15.8988 49.4711C15.8107 50.5984 16.6355 51.1621 17.5404 51.1621H49.4676C49.4756 51.1621 49.4756 51.1621 49.4836 51.1621C50.5246 51.1621 51.2053 50.309 51.0771 49.2502V49.2502ZM33.5 16.9457C34.6451 16.9457 36.2066 19.5355 37.3998 22.7424H29.6002C30.7853 19.5355 32.3549 16.9457 33.5 16.9457ZM19.3262 48.0543L21.4162 25.8578H25.268C24.8035 27.9068 24.5713 29.7578 24.5713 30.9766C24.5713 31.8373 25.308 32.5305 26.2129 32.5305C27.1178 32.5305 27.8545 31.8373 27.8545 30.9766C27.8545 29.4684 28.1508 27.6631 28.6152 25.8578H38.3768C38.8412 27.6631 39.1375 29.4684 39.1375 30.9766C39.1375 31.8373 39.8742 32.5305 40.7791 32.5305C41.684 32.5305 42.4207 31.8373 42.4207 30.9766C42.4207 29.7578 42.1885 27.9068 41.724 25.8578H45.5758L47.6658 48.0543H19.3262V48.0543Z" fill="black"/>
<rect x="32" y="32" width="2" height="10" fill="#009E00" fill-opacity="0.83"/>
<rect x="28" y="38" width="2" height="10" transform="rotate(-90 28 38)" fill="#009E00" fill-opacity="0.83"/>
</g>
</g>
<defs>
<filter id="filter0_d_2_51" x="99" y="-3" width="168" height="72" filterUnits="userSpaceOnUse" color-interpolation-filters="sRGB">
<feFlood flood-opacity="0" result="BackgroundImageFix"/>
<feColorMatrix in="SourceAlpha" type="matrix" values="0 0 0 0 0 0 0 0 0 0 0 0 0 0 0 0 0 0 127 0" result="hardAlpha"/>
<feOffset dx="3" dy="1"/>
<feGaussianBlur stdDeviation="2"/>
<feComposite in2="hardAlpha" operator="out"/>
<feColorMatrix type="matrix" values="0 0 0 0 0 0 0 0 0 0 0 0 0 0 0 0 0 0 0.25 0"/>
<feBlend mode="normal" in2="BackgroundImageFix" result="effect1_dropShadow_2_51"/>
<feBlend mode="normal" in="SourceGraphic" in2="effect1_dropShadow_2_51" result="shape"/>
</filter>
<filter id="filter1_d_2_51" x="-4" y="0" width="98" height="72" filterUnits="userSpaceOnUse" color-interpolation-filters="sRGB">
<feFlood flood-opacity="0" result="BackgroundImageFix"/>
<feColorMatrix in="SourceAlpha" type="matrix" values="0 0 0 0 0 0 0 0 0 0 0 0 0 0 0 0 0 0 127 0" result="hardAlpha"/>
<feOffset dy="4"/>
<feGaussianBlur stdDeviation="2"/>
<feComposite in2="hardAlpha" operator="out"/>
<feColorMatrix type="matrix" values="0 0 0 0 0 0 0 0 0 0 0 0 0 0 0 0 0 0 0.25 0"/>
<feBlend mode="normal" in2="BackgroundImageFix" result="effect1_dropShadow_2_51"/>
<feBlend mode="normal" in="SourceGraphic" in2="effect1_dropShadow_2_51" result="shape"/>
</filter>
<filter id="filter2_i_2_51" x="66.0988" y="0.0740433" width="28" height="64" filterUnits="userSpaceOnUse" color-interpolation-filters="sRGB">
<feFlood flood-opacity="0" result="BackgroundImageFix"/>
<feBlend mode="normal" in="SourceGraphic" in2="BackgroundImageFix" result="shape"/>
<feColorMatrix in="SourceAlpha" type="matrix" values="0 0 0 0 0 0 0 0 0 0 0 0 0 0 0 0 0 0 127 0" result="hardAlpha"/>
<feOffset dx="4"/>
<feGaussianBlur stdDeviation="2"/>
<feComposite in2="hardAlpha" operator="arithmetic" k2="-1" k3="1"/>
<feColorMatrix type="matrix" values="0 0 0 0 0.111572 0 0 0 0 0.233333 0 0 0 0 0.0369444 0 0 0 0.24 0"/>
<feBlend mode="normal" in2="shape" result="effect1_innerShadow_2_51"/>
</filter>
<filter id="filter3_i_2_51" x="5" y="4" width="60" height="56" filterUnits="userSpaceOnUse" color-interpolation-filters="sRGB">
<feFlood flood-opacity="0" result="BackgroundImageFix"/>
<feBlend mode="normal" in="SourceGraphic" in2="BackgroundImageFix" result="shape"/>
<feColorMatrix in="SourceAlpha" type="matrix" values="0 0 0 0 0 0 0 0 0 0 0 0 0 0 0 0 0 0 127 0" result="hardAlpha"/>
<feOffset dx="4"/>
<feGaussianBlur stdDeviation="2"/>
<feComposite in2="hardAlpha" operator="arithmetic" k2="-1" k3="1"/>
<feColorMatrix type="matrix" values="0 0 0 0 0.109804 0 0 0 0 0.235294 0 0 0 0 0.0352941 0 0 0 0.24 0"/>
<feBlend mode="normal" in2="shape" result="effect1_innerShadow_2_51"/>
</filter>
<filter id="filter4_i_2_51" x="299" y="4" width="60" height="56" filterUnits="userSpaceOnUse" color-interpolation-filters="sRGB">
<feFlood flood-opacity="0" result="BackgroundImageFix"/>
<feBlend mode="normal" in="SourceGraphic" in2="BackgroundImageFix" result="shape"/>
<feColorMatrix in="SourceAlpha" type="matrix" values="0 0 0 0 0 0 0 0 0 0 0 0 0 0 0 0 0 0 127 0" result="hardAlpha"/>
<feOffset dx="4"/>
<feGaussianBlur stdDeviation="2"/>
<feComposite in2="hardAlpha" operator="arithmetic" k2="-1" k3="1"/>
<feColorMatrix type="matrix" values="0 0 0 0 0.109804 0 0 0 0 0.235294 0 0 0 0 0.0352941 0 0 0 0.24 0"/>
<feBlend mode="normal" in2="shape" result="effect1_innerShadow_2_51"/>
</filter>
<filter id="filter5_d_2_51" x="12" y="8" width="49" height="47" filterUnits="userSpaceOnUse" color-interpolation-filters="sRGB">
<feFlood flood-opacity="0" result="BackgroundImageFix"/>
<feColorMatrix in="SourceAlpha" type="matrix" values="0 0 0 0 0 0 0 0 0 0 0 0 0 0 0 0 0 0 127 0" result="hardAlpha"/>
<feOffset dx="3" dy="-1"/>
<feGaussianBlur stdDeviation="2"/>
<feComposite in2="hardAlpha" operator="out"/>
<feColorMatrix type="matrix" values="0 0 0 0 0 0 0 0 0 0 0 0 0 0 0 0 0 0 0.25 0"/>
<feBlend mode="normal" in2="BackgroundImageFix" result="effect1_dropShadow_2_51"/>
<feBlend mode="normal" in="SourceGraphic" in2="effect1_dropShadow_2_51" result="shape"/>
</filter>
<clipPath id="clip0_2_51">
<rect width="360" height="64" fill="white"/>
</clipPath>
</defs>
</svg>
