<svg width="360" height="64" viewBox="0 0 360 64" fill="none" xmlns="http://www.w3.org/2000/svg">
<g clip-path="url(#clip0_2_51)">
<g filter="url(#filter0_d_2_51)">
<rect x="100" width="160" height="64" rx="32" fill="#8FBC8E" fill-opacity="0.65" shape-rendering="crispEdges"/>
</g>
<g filter="url(#filter1_d_2_51)">
<rect width="90" height="64" fill="#8FBC8E" fill-opacity="0.65" shape-rendering="crispEdges"/>
</g>
<g filter="url(#filter2_i_2_51)">
<path d="M90.0988 64.074C83.7336 64.074 77.6291 60.7026 73.1283 54.7015C68.6274 48.7003 66.0988 40.561 66.0988 32.074C66.0988 23.5871 68.6274 15.4478 73.1282 9.44663C77.6291 3.44546 83.7336 0.0740446 90.0988 0.0740433L90.0988 32.074V64.074Z" fill="#F7F7F7"/>
</g>
<path d="M93 64C88.7565 64 84.6869 60.6286 81.6863 54.6274C78.6857 48.6263 77 40.4869 77 32C77 23.5131 78.6857 15.3738 81.6863 9.37259C84.6869 3.37142 88.7565 1.28149e-06 93 0L93 32V64Z" fill="#F7F7F7"/>
<g filter="url(#filter3_i_2_51)">
<circle cx="33" cy="32" r="28" fill="#F7F7F7"/>
</g>
<rect width="90" height="64" transform="matrix(-1 0 0 1 360 0)" fill="#8FBC8E" fill-opacity="0.65"/>
<path d="M269.901 64.074C276.266 64.074 282.371 60.7026 286.872 54.7015C291.373 48.7003 293.901 40.561 293.901 32.074C293.901 23.5871 291.373 15.4478 286.872 9.44663C282.371 3.44546 276.266 0.0740446 269.901 0.0740433L269.901 32.074V64.074Z" fill="#F7F7F7"/>
<g filter="url(#filter4_i_2_51)">
<circle r="28" transform="matrix(-1 0 0 1 327 32)" fill="#F7F7F7"/>
</g>
</g>
<defs>
<filter id="filter0_d_2_51" x="99" y="-3" width="168" height="72" filterUnits="userSpaceOnUse" color-interpolation-filters="sRGB">
<feFlood flood-opacity="0" result="BackgroundImageFix"/>
<feColorMatrix in="SourceAlpha" type="matrix" values="0 0 0 0 0 0 0 0 0 0 0 0 0 0 0 0 0 0 127 0" result="hardAlpha"/>
<feOffset dx="3" dy="1"/>
<feGaussianBlur stdDeviation="2"/>
<feComposite in2="hardAlpha" operator="out"/>
<feColorMatrix type="matrix" values="0 0 0 0 0 0 0 0 0 0 0 0 0 0 0 0 0 0 0.25 0"/>
<feBlend mode="normal" in2="BackgroundImageFix" result="effect1_dropShadow_2_51"/>
<feBlend mode="normal" in="SourceGraphic" in2="effect1_dropShadow_2_51" result="shape"/>
</filter>
<filter id="filter1_d_2_51" x="-4" y="0" width="98" height="72" filterUnits="userSpaceOnUse" color-interpolation-filters="sRGB">
<feFlood flood-opacity="0" result="BackgroundImageFix"/>
<feColorMatrix in="SourceAlpha" type="matrix" values="0 0 0 0 0 0 0 0 0 0 0 0 0 0 0 0 0 0 127 0" result="hardAlpha"/>
<feOffset dy="4"/>
<feGaussianBlur stdDeviation="2"/>
<feComposite in2="hardAlpha" operator="out"/>
<feColorMatrix type="matrix" values="0 0 0 0 0 0 0 0 0 0 0 0 0 0 0 0 0 0 0.25 0"/>
<feBlend mode="normal" in2="BackgroundImageFix" result="effect1_dropShadow_2_51"/>
<feBlend mode="normal" in="SourceGraphic" in2="effect1_dropShadow_2_51" result="shape"/>
</filter>
<filter id="filter2_i_2_51" x="66.0988" y="0.0740433" width="28" height="64" filterUnits="userSpaceOnUse" color-interpolation-filters="sRGB">
<feFlood flood-opacity="0" result="BackgroundImageFix"/>
<feBlend mode="normal" in="SourceGraphic" in2="BackgroundImageFix" result="shape"/>
<feColorMatrix in="SourceAlpha" type="matrix" values="0 0 0 0 0 0 0 0 0 0 0 0 0 0 0 0 0 0 127 0" result="hardAlpha"/>
<feOffset dx="4"/>
<feGaussianBlur stdDeviation="2"/>
<feComposite in2="hardAlpha" operator="arithmetic" k2="-1" k3="1"/>
<feColorMatrix type="matrix" values="0 0 0 0 0.111572 0 0 0 0 0.233333 0 0 0 0 0.0369444 0 0 0 0.24 0"/>
<feBlend mode="normal" in2="shape" result="effect1_innerShadow_2_51"/>
</filter>
<filter id="filter3_i_2_51" x="5" y="4" width="60" height="56" filterUnits="userSpaceOnUse" color-interpolation-filters="sRGB">
<feFlood flood-opacity="0" result="BackgroundImageFix"/>
<feBlend mode="normal" in="SourceGraphic" in2="BackgroundImageFix" result="shape"/>
<feColorMatrix in="SourceAlpha" type="matrix" values="0 0 0 0 0 0 0 0 0 0 0 0 0 0 0 0 0 0 127 0" result="hardAlpha"/>
<feOffset dx="4"/>
<feGaussianBlur stdDeviation="2"/>
<feComposite in2="hardAlpha" operator="arithmetic" k2="-1" k3="1"/>
<feColorMatrix type="matrix" values="0 0 0 0 0.109804 0 0 0 0 0.235294 0 0 0 0 0.0352941 0 0 0 0.24 0"/>
<feBlend mode="normal" in2="shape" result="effect1_innerShadow_2_51"/>
</filter>
<filter id="filter4_i_2_51" x="299" y="4" width="60" height="56" filterUnits="userSpaceOnUse" color-interpolation-filters="sRGB">
<feFlood flood-opacity="0" result="BackgroundImageFix"/>
<feBlend mode="normal" in="SourceGraphic" in2="BackgroundImageFix" result="shape"/>
<feColorMatrix in="SourceAlpha" type="matrix" values="0 0 0 0 0 0 0 0 0 0 0 0 0 0 0 0 0 0 127 0" result="hardAlpha"/>
<feOffset dx="4"/>
<feGaussianBlur stdDeviation="2"/>
<feComposite in2="hardAlpha" operator="arithmetic" k2="-1" k3="1"/>
<feColorMatrix type="matrix" values="0 0 0 0 0.109804 0 0 0 0 0.235294 0 0 0 0 0.0352941 0 0 0 0.24 0"/>
<feBlend mode="normal" in2="shape" result="effect1_innerShadow_2_51"/>
</filter>
<clipPath id="clip0_2_51">
<rect width="360" height="64" fill="white"/>
</clipPath>
</defs>
</svg>
